<svg width="556" height="180" viewBox="0 0 556 180" fill="none" xmlns="http://www.w3.org/2000/svg">
<g clip-path="url(#clip0_2147_85)">
<path fill-rule="evenodd" clip-rule="evenodd" d="M65.4824 13.1621C82.8496 13.1621 98.0273 16.6836 111.016 23.7246C124.158 30.6094 134.25 40.3086 141.291 52.8262C144.798 59.0598 147.432 65.7399 149.192 72.8662L68.8772 88.2987L52.1118 91.5201L68.9226 178.581C67.7854 178.613 66.6387 178.629 65.4824 178.629H0V13.1621H65.4824ZM102.81 171.838C105.55 170.719 108.207 169.462 110.781 168.066C123.924 160.869 134.016 151.012 141.057 138.494C146.426 129.156 149.793 118.86 151.157 107.605L92.6567 118.995L102.81 171.838Z" fill="#00EA63" fill-opacity="0.2"/>
<path d="M486.108 179.272C472.965 179.272 461.151 176.534 450.668 171.058C440.341 165.581 432.204 157.758 426.259 147.587C420.313 137.417 417.34 125.447 417.34 111.677C417.34 98.0646 420.313 86.173 426.259 76.0024C432.361 65.8319 440.576 58.0084 450.903 52.532C461.386 47.0556 473.199 44.3174 486.343 44.3174C499.486 44.3174 511.222 47.0556 521.549 52.532C532.032 58.0084 540.247 65.8319 546.192 76.0024C552.295 86.173 555.346 98.0646 555.346 111.677C555.346 125.29 552.295 137.26 546.192 147.587C540.247 157.758 532.032 165.581 521.549 171.058C511.065 176.534 499.252 179.272 486.108 179.272ZM486.108 139.373C492.523 139.373 497.843 137.026 502.068 132.331C506.449 127.481 508.64 120.596 508.64 111.677C508.64 102.759 506.449 95.9523 502.068 91.2582C497.843 86.5641 492.602 84.2171 486.343 84.2171C480.084 84.2171 474.842 86.5641 470.618 91.2582C466.393 95.9523 464.281 102.759 464.281 111.677C464.281 120.753 466.315 127.637 470.383 132.331C474.451 137.026 479.693 139.373 486.108 139.373Z" fill="#00EA63" fill-opacity="0.2"/>
<path d="M412.65 5.94727V179.628H366.648V5.94727H412.65Z" fill="#00EA63" fill-opacity="0.2"/>
<path d="M361.396 10.3482L322.327 179.578L277.504 169.23L316.573 0L361.396 10.3482Z" fill="#00EA63" fill-opacity="0.2"/>
<path d="M225.167 136.21L249.81 47.9609H298.864L253.566 179.63H196.298L151 47.9609H200.053L225.167 136.21Z" fill="#00EA63" fill-opacity="0.2"/>
</g>
<defs>
<clipPath id="clip0_2147_85">
<rect width="556" height="180" fill="white"/>
</clipPath>
</defs>
</svg>
